<svg id="Слой_1" data-name="Слой 1" xmlns="http://www.w3.org/2000/svg" viewBox="0 0 504 504"><defs><style>.cls-1{fill:#071836;}.cls-2{fill:#266fef;}.cls-3{fill:#1f2f4b;}</style></defs><title>logo</title><path class="cls-1" d="M540,452.5a89.26,89.26,0,0,1,13.47,1h.07a167.5,167.5,0,0,1,57.74,15.19,167.5,167.5,0,0,1,15.19,57.74v.07a88.71,88.71,0,0,1,0,26.94v.07a167.5,167.5,0,0,1-15.19,57.74,167.49,167.49,0,0,1-57.74,15.19h-.07a88.7,88.7,0,0,1-26.94,0h-.07a167.49,167.49,0,0,1-57.74-15.19,167.5,167.5,0,0,1-15.19-57.74v-.07a88.71,88.71,0,0,1,0-26.94v-.07a167.5,167.5,0,0,1,15.19-57.74,167.5,167.5,0,0,1,57.74-15.19h.07a89.26,89.26,0,0,1,13.47-1m0-1a89.94,89.94,0,0,0-13.62,1A168.86,168.86,0,0,0,468,468a168.86,168.86,0,0,0-15.43,58.41,89.71,89.71,0,0,0,0,27.24A168.86,168.86,0,0,0,468,612a168.85,168.85,0,0,0,58.41,15.43,89.7,89.7,0,0,0,27.24,0A168.85,168.85,0,0,0,612,612a168.86,168.86,0,0,0,15.43-58.41,89.71,89.71,0,0,0,0-27.24A168.86,168.86,0,0,0,612,468a168.86,168.86,0,0,0-58.41-15.43,89.94,89.94,0,0,0-13.62-1Z" transform="translate(-288 -288)"/><path class="cls-1" d="M289.53,517.13a171.69,171.69,0,0,0,0,45.74q-1-11.3-1-22.87t1-22.87Z" transform="translate(-288 -288)"/><path class="cls-1" d="M540,452.5a89.26,89.26,0,0,1,13.47,1h.07a167.5,167.5,0,0,1,57.74,15.19,167.5,167.5,0,0,1,15.19,57.74c.36,4.44.54,9,.54,13.54s-.18,9.1-.54,13.54a167.5,167.5,0,0,1-15.19,57.74,167.49,167.49,0,0,1-57.74,15.19h-.07a88.7,88.7,0,0,1-26.94,0h-.07a167.49,167.49,0,0,1-57.74-15.19,167.5,167.5,0,0,1-15.19-57.74v-.07a88.71,88.71,0,0,1,0-26.94v-.07a167.5,167.5,0,0,1,15.19-57.74,167.5,167.5,0,0,1,57.74-15.19h.07a89.26,89.26,0,0,1,13.47-1m0-1a89.94,89.94,0,0,0-13.62,1A168.86,168.86,0,0,0,468,468a168.86,168.86,0,0,0-15.43,58.41,89.71,89.71,0,0,0,0,27.24A168.86,168.86,0,0,0,468,612a168.85,168.85,0,0,0,58.41,15.43,89.7,89.7,0,0,0,27.24,0A168.85,168.85,0,0,0,612,612a168.86,168.86,0,0,0,15.43-58.41c.36-4.49.54-9,.54-13.62s-.18-9.13-.54-13.62A168.86,168.86,0,0,0,612,468a168.86,168.86,0,0,0-58.41-15.43,89.94,89.94,0,0,0-13.62-1Z" transform="translate(-288 -288)"/><path class="cls-1" d="M540,452.5a89.26,89.26,0,0,1,13.47,1h.07a167.5,167.5,0,0,1,57.74,15.19,167.5,167.5,0,0,1,15.19,57.74v.07a88.71,88.71,0,0,1,0,26.94v.07a167.5,167.5,0,0,1-15.19,57.74,167.49,167.49,0,0,1-57.74,15.19h-.07a88.7,88.7,0,0,1-26.94,0h-.07a167.49,167.49,0,0,1-57.74-15.19,167.5,167.5,0,0,1-15.19-57.74c-.36-4.44-.54-9-.54-13.54s.18-9.1.54-13.54a167.5,167.5,0,0,1,15.19-57.74,167.5,167.5,0,0,1,57.74-15.19h.07a89.26,89.26,0,0,1,13.47-1m0-1a89.94,89.94,0,0,0-13.62,1A168.86,168.86,0,0,0,468,468a168.86,168.86,0,0,0-15.43,58.41c-.36,4.49-.54,9-.54,13.62s.18,9.13.54,13.62A168.86,168.86,0,0,0,468,612a168.85,168.85,0,0,0,58.41,15.43,89.7,89.7,0,0,0,27.24,0A168.85,168.85,0,0,0,612,612a168.86,168.86,0,0,0,15.43-58.41,89.71,89.71,0,0,0,0-27.24A168.86,168.86,0,0,0,612,468a168.86,168.86,0,0,0-58.41-15.43,89.94,89.94,0,0,0-13.62-1Z" transform="translate(-288 -288)"/><path class="cls-1" d="M790.47,517.13q1,11.29,1,22.87t-1,22.87a171.69,171.69,0,0,0,0-45.74Z" transform="translate(-288 -288)"/><path d="M540,288a170.8,170.8,0,0,0-22.87,1.53q11.29-1,22.87-1t22.87,1A170.8,170.8,0,0,0,540,288Z" transform="translate(-288 -288)"/><path class="cls-2" d="M579.64,787.88A170.6,170.6,0,0,0,689.39,539.76a172.2,172.2,0,0,0-77.15-72.24A169,169,0,0,0,553.66,452a90.14,90.14,0,0,0-27.35,0A168.92,168.92,0,0,0,469,466.94,169.45,169.45,0,0,1,622,370.5a168.11,168.11,0,0,1,71.82,15.92A169.66,169.66,0,0,1,790,517.2c.68,7.53,1,15.21,1,22.8s-.35,15.28-1,22.83a251.09,251.09,0,0,1-210.33,225Z" transform="translate(-288 -288)"/><path class="cls-3" d="M622,371a167.61,167.61,0,0,1,71.61,15.88,169.15,169.15,0,0,1,95.87,130.34c.68,7.54,1,15.2,1,22.78s-.35,15.24-1,22.78A250.45,250.45,0,0,1,590.87,785.33a171.14,171.14,0,0,0,99-245.82,172.7,172.7,0,0,0-77.37-72.45,169.49,169.49,0,0,0-58.72-15.52,90.71,90.71,0,0,0-27.47,0,169.48,169.48,0,0,0-56.2,14.36A168.95,168.95,0,0,1,622,371m0-1a170,170,0,0,0-154,98,168.86,168.86,0,0,1,58.41-15.43,89.71,89.71,0,0,1,27.24,0A168.86,168.86,0,0,1,612,468a170,170,0,0,1-49.16,322.5c120.65-10.87,216.73-107,227.6-227.6q1-11.3,1-22.87t-1-22.87A169.88,169.88,0,0,0,622,370Z" transform="translate(-288 -288)"/><path class="cls-1" d="M540,452.5a89.26,89.26,0,0,1,13.47,1h.07a167.5,167.5,0,0,1,57.74,15.19,167.5,167.5,0,0,1,15.19,57.74v.07a88.71,88.71,0,0,1,0,26.94v.07a167.5,167.5,0,0,1-15.19,57.74,167.5,167.5,0,0,1-57.74,15.19c-4.44.36-9,.54-13.54.54s-9.1-.18-13.54-.54a167.49,167.49,0,0,1-57.74-15.19,167.5,167.5,0,0,1-15.19-57.74v-.07a88.71,88.71,0,0,1,0-26.94v-.07a167.5,167.5,0,0,1,15.19-57.74,167.5,167.5,0,0,1,57.74-15.19h.07a89.26,89.26,0,0,1,13.47-1m0-1a89.94,89.94,0,0,0-13.62,1A168.86,168.86,0,0,0,468,468a168.86,168.86,0,0,0-15.43,58.41,89.71,89.71,0,0,0,0,27.24A168.86,168.86,0,0,0,468,612a168.85,168.85,0,0,0,58.41,15.43c4.49.36,9,.54,13.62.54s9.13-.18,13.62-.54A168.85,168.85,0,0,0,612,612a168.86,168.86,0,0,0,15.43-58.41,89.71,89.71,0,0,0,0-27.24A168.86,168.86,0,0,0,612,468a168.86,168.86,0,0,0-58.41-15.43,89.94,89.94,0,0,0-13.62-1Z" transform="translate(-288 -288)"/><path class="cls-3" d="M540,791c-7.6,0-15.28-.35-22.83-1a251.09,251.09,0,0,1-225-210.33A170.6,170.6,0,0,0,540.24,689.39a172.19,172.19,0,0,0,72.24-77.15A169,169,0,0,0,628,553.66a90.12,90.12,0,0,0,0-27.35A168.9,168.9,0,0,0,613.07,469,169.45,169.45,0,0,1,709.5,622a168.12,168.12,0,0,1-15.92,71.82A169.65,169.65,0,0,1,562.8,790C555.28,790.65,547.6,791,540,791Z" transform="translate(-288 -288)"/><path class="cls-3" d="M614.09,470.06a169,169,0,0,1-51.31,319.41c-7.54.68-15.2,1-22.78,1s-15.24-.35-22.78-1A250.45,250.45,0,0,1,294.67,590.87a171.14,171.14,0,0,0,245.82,99,172.7,172.7,0,0,0,72.45-77.37,169.49,169.49,0,0,0,15.52-58.72,90.71,90.71,0,0,0,0-27.47,169.48,169.48,0,0,0-14.36-56.2M612,468a168.86,168.86,0,0,1,15.43,58.41,89.71,89.71,0,0,1,0,27.24A168.86,168.86,0,0,1,612,612a170,170,0,0,1-322.5-49.16c10.87,120.65,106.95,216.73,227.6,227.6q11.29,1,22.87,1t22.87-1A170,170,0,0,0,612,468Z" transform="translate(-288 -288)"/><path class="cls-1" d="M562.87,790.47q-11.29,1-22.87,1t-22.87-1a171.69,171.69,0,0,0,45.74,0Z" transform="translate(-288 -288)"/><path class="cls-2" d="M458,709.5a168.12,168.12,0,0,1-71.82-15.92A169.65,169.65,0,0,1,290,562.8c-.68-7.53-1-15.21-1-22.8s.35-15.27,1-22.83A251.09,251.09,0,0,1,500.36,292.12,170.6,170.6,0,0,0,390.61,540.24a172.2,172.2,0,0,0,77.15,72.24A169,169,0,0,0,526.34,628a90.12,90.12,0,0,0,27.35,0A168.91,168.91,0,0,0,611,613.07,169.45,169.45,0,0,1,458,709.5Z" transform="translate(-288 -288)"/><path class="cls-3" d="M489.13,294.67a171.14,171.14,0,0,0-99,245.82,172.7,172.7,0,0,0,77.37,72.45,169.49,169.49,0,0,0,58.72,15.52,90.71,90.71,0,0,0,27.47,0,169.48,169.48,0,0,0,56.2-14.36,169,169,0,0,1-319.41-51.31c-.68-7.54-1-15.2-1-22.78s.35-15.24,1-22.78A250.45,250.45,0,0,1,489.13,294.67m28-5.14C396.48,300.4,300.4,396.48,289.53,517.13q-1,11.29-1,22.87t1,22.87A170,170,0,0,0,612,612a168.85,168.85,0,0,1-58.41,15.43,89.7,89.7,0,0,1-27.24,0A168.85,168.85,0,0,1,468,612a170,170,0,0,1,49.16-322.5Z" transform="translate(-288 -288)"/><path class="cls-3" d="M466.94,611A169.45,169.45,0,0,1,370.5,458a168.11,168.11,0,0,1,15.92-71.82A169.65,169.65,0,0,1,517.2,290c7.53-.68,15.21-1,22.8-1s15.27.35,22.83,1a251.09,251.09,0,0,1,225,210.33A170.6,170.6,0,0,0,539.76,390.61a172.2,172.2,0,0,0-72.24,77.15A169,169,0,0,0,452,526.34a90.15,90.15,0,0,0,0,27.36A168.91,168.91,0,0,0,466.94,611Z" transform="translate(-288 -288)"/><path class="cls-3" d="M540,289.5c7.58,0,15.24.35,22.78,1A250.45,250.45,0,0,1,785.33,489.13a171.14,171.14,0,0,0-245.82-99,172.7,172.7,0,0,0-72.45,77.37,169.49,169.49,0,0,0-15.52,58.72,90.71,90.71,0,0,0,0,27.47,169.48,169.48,0,0,0,14.36,56.2,169,169,0,0,1,51.31-319.41c7.54-.68,15.2-1,22.78-1m0-1q-11.57,0-22.87,1A170,170,0,0,0,468,612a168.86,168.86,0,0,1-15.43-58.41,89.71,89.71,0,0,1,0-27.24A168.86,168.86,0,0,1,468,468a170,170,0,0,1,322.5,49.16C779.6,396.48,683.52,300.4,562.87,289.53q-11.29-1-22.87-1Z" transform="translate(-288 -288)"/><path class="cls-1" d="M540,453c4.54,0,9.1.18,13.54.54a167.5,167.5,0,0,1,57.74,15.19,167.5,167.5,0,0,1,15.19,57.74v.07a88.71,88.71,0,0,1,0,26.94v.07a167.5,167.5,0,0,1-15.19,57.74,167.49,167.49,0,0,1-57.74,15.19h-.07a88.7,88.7,0,0,1-26.94,0h-.07a167.49,167.49,0,0,1-57.74-15.19,167.5,167.5,0,0,1-15.19-57.74v-.07a88.71,88.71,0,0,1,0-26.94v-.07a167.5,167.5,0,0,1,15.19-57.74,167.5,167.5,0,0,1,57.74-15.19c4.44-.36,9-.54,13.54-.54m0-1c-4.58,0-9.13.18-13.62.54A168.86,168.86,0,0,0,468,468a168.86,168.86,0,0,0-15.43,58.41,89.71,89.71,0,0,0,0,27.24A168.86,168.86,0,0,0,468,612a168.85,168.85,0,0,0,58.41,15.43,89.7,89.7,0,0,0,27.24,0A168.85,168.85,0,0,0,612,612a168.86,168.86,0,0,0,15.43-58.41,89.71,89.71,0,0,0,0-27.24A168.86,168.86,0,0,0,612,468a168.86,168.86,0,0,0-58.41-15.43c-4.49-.36-9-.54-13.62-.54Z" transform="translate(-288 -288)"/></svg>