<svg xmlns="http://www.w3.org/2000/svg" xmlns:xlink="http://www.w3.org/1999/xlink" version="1.1" style="enable-background:new 0 0 56.966 56.966;" xml:space="preserve" width="56.966" height="56.966"><rect id="backgroundrect" width="100%" height="100%" x="0" y="0" fill="none" stroke="none"/>
















<g class="currentLayer" style=""><title>Layer 1</title><path d="M55.146,51.887L41.588,37.786c3.486-4.144,5.396-9.358,5.396-14.786c0-12.682-10.318-23-23-23s-23,10.318-23,23  s10.318,23,23,23c4.761,0,9.298-1.436,13.177-4.162l13.661,14.208c0.571,0.593,1.339,0.92,2.162,0.92  c0.779,0,1.518-0.297,2.079-0.837C56.255,54.982,56.293,53.08,55.146,51.887z M23.984,6c9.374,0,17,7.626,17,17s-7.626,17-17,17  s-17-7.626-17-17S14.61,6,23.984,6z" id="svg_1" class="selected" fill-opacity="1" fill="#266fef"/><g id="svg_2" class="selected" fill-opacity="1" fill="#266fef">
</g><g id="svg_3" class="selected" fill-opacity="1" fill="#266fef">
</g><g id="svg_4" class="selected" fill-opacity="1" fill="#266fef">
</g><g id="svg_5" class="selected" fill-opacity="1" fill="#266fef">
</g><g id="svg_6" class="selected" fill-opacity="1" fill="#266fef">
</g><g id="svg_7" class="selected" fill-opacity="1" fill="#266fef">
</g><g id="svg_8" class="selected" fill-opacity="1" fill="#266fef">
</g><g id="svg_9" class="selected" fill-opacity="1" fill="#266fef">
</g><g id="svg_10" class="selected" fill-opacity="1" fill="#266fef">
</g><g id="svg_11" class="selected" fill-opacity="1" fill="#266fef">
</g><g id="svg_12" class="selected" fill-opacity="1" fill="#266fef">
</g><g id="svg_13" class="selected" fill-opacity="1" fill="#266fef">
</g><g id="svg_14" class="selected" fill-opacity="1" fill="#266fef">
</g><g id="svg_15" class="selected" fill-opacity="1" fill="#266fef">
</g><g id="svg_16" class="selected" fill-opacity="1" fill="#266fef">
</g></g></svg>